General.

Complete name                    : Saw VII[2010]ENG[BrRip]Xvid{RedDragon}.avi
Format                           : avi
Format profile                   : Base Media / Version 2
Codec ID                         : mp42
File size                        : 748 MiB
Duration                         : 1h 29mn
Overall bit rate                 : 1 166 Kbps
Encoded date                     : UTC 2012-03-25 05:01:15
Tagged date                      : UTC 2012-03-25 05:37:34
IMDB Link                         : http://www.imdb.com/title/tt1477076/
IMDB Rating                     : 5.5/10


Video.

ID                               : 1
Format                           : AVC
Format/Info                      : Advanced Video Codec
Format profile                   : Main@L3.0
Format settings, CABAC           : Yes
Format settings, ReFrames        : 4 frames
Codec ID                         : avc1
Codec ID/Info                    : Advanced Video Coding
Duration                         : 1h 29mn
Bit rate mode                    : Variable
Bit rate                         : 1 005 Kbps
Width                            : 640 pixels
Height                           : 360 pixels
Display aspect ratio             : 16:9
Frame rate mode                  : Variable
Frame rate                       : 23.976 fps
Minimum frame rate               : 11.987 fps
Maximum frame rate               : 90 000.000 fps
Color space                      : YUV
Chroma subsampling               : 4:2:0
Bit depth                        : 8 bits
Scan type                        : Progressive
Bits/(Pixel*Frame)               : 0.182
Stream size                      : 642 MiB (86%)
Writing library                  : x264 core 112
Encoded date                     : UTC 2012-03-25 05:01:15


Audio.

ID                               : 2
Format                           : AAC
Format/Info                      : Advanced Audio Codec
Format version                   : Version 4
Format profile                   : LC
Format settings, SBR             : No
Codec ID                         : 40
Duration                         : 1h 29mn
Bit rate mode                    : Variable
Bit rate                         : 160 Kbps
Maximum bit rate                 : 212 Kbps
Channel(s)                       : 2 channels
Channel positions                : Front: L R
Sampling rate                    : 44.1 KHz
Stream size                      : 103 MiB (14%)
Encoded date                     : UTC 2012-03-25 05:01:15
Tagged date                      : UTC 2012-03-25 05:37:34
